# xmcd
#
# Track frame offsets:
#	150
#	26220
#	40413
#	66492
#	88802
#	108235
#	131224
#	150908
#	173657
#	195578
#	221018
#
# Disc length: 3262 seconds
#
# Revision: 0
# Processed by: cddbd v1.5.1PL0 Copyright (c) Steve Scherf et al.
# Submitted via: dBpowerAMP V4.0
#
DISCID=9b0cbc0b
DTITLE=Calvin Bernard Rhone - Hear The Angels
DYEAR=1999
DGENRE=Gospel
TTITLE0=Hear The Angels
TTITLE1=O Holy Night
TTITLE2=Born to be The King
TTITLE3=Live in me Jesus
TTITLE4=Wrapped in Flesh
TTITLE5=Throughout The Year
TTITLE6=Silent Night
TTITLE7=Wonderful, Counselor
TTITLE8=Christmas Time
TTITLE9=Whose Birthday
TTITLE10=Don't Forget Jesus
EXTD=
EXTT0=
EXTT1=
EXTT2=
EXTT3=
EXTT4=
EXTT5=
EXTT6=
EXTT7=
EXTT8=
EXTT9=
EXTT10=
PLAYORDER=
